REM DIRINDEX 1\2,1\3,1\4,1\5\6,1\5\7,1\8
REM DIRNAME folder01,folder02,folder03,folder04,folder05,folder06,folder07,folder08
TITLE ""
FILE "012 【012】Unit1 (0133 imitate_0144 extravagant).mp3" MP3
  TRACK 01 AUDIO
    TITLE "0:"
    INDEX 01 00:00:00
  TRACK 02 AUDIO
    TITLE "2:cjc115_0398"
    INDEX 01 00:00:07
  TRACK 03 AUDIO
    TITLE "0:"
    INDEX 01 00:01:24
  TRACK 04 AUDIO
    TITLE "3:cjc115_0399"
    INDEX 01 00:01:32
  TRACK 05 AUDIO
    TITLE "0:"
    INDEX 01 00:03:59
  TRACK 06 AUDIO
    TITLE "4:cjc115_0400"
    INDEX 01 00:03:68
  TRACK 07 AUDIO
    TITLE "0:"
    INDEX 01 00:07:52
  TRACK 08 AUDIO
    TITLE "2:cjc115_0401"
    INDEX 01 00:08:56
  TRACK 09 AUDIO
    TITLE "0:"
    INDEX 01 00:10:06
  TRACK 10 AUDIO
    TITLE "3:cjc115_0402"
    INDEX 01 00:10:18
  TRACK 11 AUDIO
    TITLE "0:"
    INDEX 01 00:12:09
  TRACK 12 AUDIO
    TITLE "4:cjc115_0403"
    INDEX 01 00:12:18
  TRACK 13 AUDIO
    TITLE "0:"
    INDEX 01 00:16:38
  TRACK 14 AUDIO
    TITLE "2:cjc115_0404"
    INDEX 01 00:17:49
  TRACK 15 AUDIO
    TITLE "0:"
    INDEX 01 00:19:05
  TRACK 16 AUDIO
    TITLE "3:cjc115_0405"
    INDEX 01 00:19:16
  TRACK 17 AUDIO
    TITLE "0:"
    INDEX 01 00:20:26
  TRACK 18 AUDIO
    TITLE "4:cjc115_0406"
    INDEX 01 00:20:36
  TRACK 19 AUDIO
    TITLE "0:"
    INDEX 01 00:23:48
  TRACK 20 AUDIO
    TITLE "2:cjc115_0407"
    INDEX 01 00:24:55
  TRACK 21 AUDIO
    TITLE "0:"
    INDEX 01 00:26:09
  TRACK 22 AUDIO
    TITLE "3:cjc115_0408"
    INDEX 01 00:26:13
  TRACK 23 AUDIO
    TITLE "0:"
    INDEX 01 00:28:23
  TRACK 24 AUDIO
    TITLE "4:cjc115_0409"
    INDEX 01 00:28:33
  TRACK 25 AUDIO
    TITLE "0:"
    INDEX 01 00:33:38
  TRACK 26 AUDIO
    TITLE "2:cjc115_0410"
    INDEX 01 00:34:47
  TRACK 27 AUDIO
    TITLE "0:"
    INDEX 01 00:35:74
  TRACK 28 AUDIO
    TITLE "3:cjc115_0411"
    INDEX 01 00:36:09
  TRACK 29 AUDIO
    TITLE "0:"
    INDEX 01 00:38:41
  TRACK 30 AUDIO
    TITLE "4:cjc115_0412"
    INDEX 01 00:38:49
  TRACK 31 AUDIO
    TITLE "0:"
    INDEX 01 00:43:56
  TRACK 32 AUDIO
    TITLE "2:cjc115_0413"
    INDEX 01 00:44:65
  TRACK 33 AUDIO
    TITLE "0:"
    INDEX 01 00:46:11
  TRACK 34 AUDIO
    TITLE "3:cjc115_0414"
    INDEX 01 00:46:13
  TRACK 35 AUDIO
    TITLE "0:"
    INDEX 01 00:48:24
  TRACK 36 AUDIO
    TITLE "4:cjc115_0415"
    INDEX 01 00:48:34
  TRACK 37 AUDIO
    TITLE "0:"
    INDEX 01 00:51:42
  TRACK 38 AUDIO
    TITLE "2:cjc115_0416"
    INDEX 01 00:52:49
  TRACK 39 AUDIO
    TITLE "0:"
    INDEX 01 00:53:70
  TRACK 40 AUDIO
    TITLE "3:cjc115_0417"
    INDEX 01 00:54:05
  TRACK 41 AUDIO
    TITLE "0:"
    INDEX 01 00:55:36
  TRACK 42 AUDIO
    TITLE "4:cjc115_0418"
    INDEX 01 00:55:48
  TRACK 43 AUDIO
    TITLE "0:"
    INDEX 01 01:00:00
  TRACK 44 AUDIO
    TITLE "2:cjc115_0419"
    INDEX 01 01:01:09
  TRACK 45 AUDIO
    TITLE "0:"
    INDEX 01 01:02:24
  TRACK 46 AUDIO
    TITLE "3:cjc115_0420"
    INDEX 01 01:02:30
  TRACK 47 AUDIO
    TITLE "0:"
    INDEX 01 01:04:39
  TRACK 48 AUDIO
    TITLE "4:cjc115_0421"
    INDEX 01 01:04:43
  TRACK 49 AUDIO
    TITLE "0:"
    INDEX 01 01:08:33
  TRACK 50 AUDIO
    TITLE "2:cjc115_0422"
    INDEX 01 01:09:40
  TRACK 51 AUDIO
    TITLE "0:"
    INDEX 01 01:11:00
  TRACK 52 AUDIO
    TITLE "3:cjc115_0423"
    INDEX 01 01:11:07
  TRACK 53 AUDIO
    TITLE "0:"
    INDEX 01 01:13:63
  TRACK 54 AUDIO
    TITLE "4:cjc115_0424"
    INDEX 01 01:13:73
  TRACK 55 AUDIO
    TITLE "0:"
    INDEX 01 01:18:15
  TRACK 56 AUDIO
    TITLE "2:cjc115_0425"
    INDEX 01 01:19:21
  TRACK 57 AUDIO
    TITLE "0:"
    INDEX 01 01:20:55
  TRACK 58 AUDIO
    TITLE "3:cjc115_0426"
    INDEX 01 01:20:63
  TRACK 59 AUDIO
    TITLE "0:"
    INDEX 01 01:23:73
  TRACK 60 AUDIO
    TITLE "4:cjc115_0427"
    INDEX 01 01:24:04
  TRACK 61 AUDIO
    TITLE "0:"
    INDEX 01 01:29:01
  TRACK 62 AUDIO
    TITLE "2:cjc115_0428"
    INDEX 01 01:30:11
  TRACK 63 AUDIO
    TITLE "0:"
    INDEX 01 01:31:24
  TRACK 64 AUDIO
    TITLE "3:cjc115_0429"
    INDEX 01 01:31:34
  TRACK 65 AUDIO
    TITLE "0:"
    INDEX 01 01:33:23
  TRACK 66 AUDIO
    TITLE "4:cjc115_0430"
    INDEX 01 01:33:36
  TRACK 67 AUDIO
    TITLE "0:"
    INDEX 01 01:37:48
  TRACK 68 AUDIO
    TITLE "2:cjc115_0431"
    INDEX 01 01:38:55
  TRACK 69 AUDIO
    TITLE "0:"
    INDEX 01 01:40:17
  TRACK 70 AUDIO
    TITLE "3:cjc115_0432"
    INDEX 01 01:40:29
  TRACK 71 AUDIO
    TITLE "0:"
    INDEX 01 01:44:03
  TRACK 72 AUDIO
    TITLE "4:cjc115_0433"
    INDEX 01 01:44:11
  TRACK 73 AUDIO
    TITLE "0:"
    INDEX 01 01:48:48
